<mxfile host="65bd71144e">
    <diagram id="HIP3nbAZw_EuaXWnEj3U" name="Page-1">
        <mxGraphModel dx="1066" dy="1671" grid="1" gridSize="10" guides="1" tooltips="1" connect="1" arrows="1" fold="1" page="1" pageScale="1" pageWidth="850" pageHeight="1100" math="0" shadow="0">
            <root>
                <mxCell id="0"/>
                <mxCell id="1" parent="0"/>
                <mxCell id="7" value="Enter" style="swimlane;whiteSpace=wrap;html=1;strokeWidth=4;rounded=0;" parent="1" vertex="1">
                    <mxGeometry x="80" y="-20" width="760" height="480" as="geometry"/>
                </mxCell>
                <mxCell id="29" value="&lt;font style=&quot;font-size: 18px;&quot;&gt;volume of a right rectangular pyramid&amp;nbsp; with JS&lt;/font&gt;" style="rounded=0;whiteSpace=wrap;html=1;shadow=0;sketch=0;strokeWidth=1;fontSize=11;" vertex="1" parent="7">
                    <mxGeometry y="20" width="760" height="60" as="geometry"/>
                </mxCell>
                <mxCell id="30" value="Formulas: V = (L * W*H) / 3" style="text;html=1;strokeColor=none;fillColor=none;align=center;verticalAlign=middle;whiteSpace=wrap;rounded=0;shadow=0;sketch=0;strokeWidth=1;fontSize=18;" vertex="1" parent="7">
                    <mxGeometry x="20" y="100" width="220" height="50" as="geometry"/>
                </mxCell>
                <mxCell id="31" value="Please enter integers for dimensions:&amp;nbsp;" style="text;html=1;strokeColor=none;fillColor=none;align=center;verticalAlign=middle;whiteSpace=wrap;rounded=0;shadow=0;sketch=0;strokeWidth=1;fontSize=18;" vertex="1" parent="7">
                    <mxGeometry x="10" y="150" width="330" height="30" as="geometry"/>
                </mxCell>
                <mxCell id="32" value="Length:" style="text;html=1;strokeColor=none;fillColor=none;align=center;verticalAlign=middle;whiteSpace=wrap;rounded=0;shadow=0;sketch=0;strokeWidth=1;fontSize=18;" vertex="1" parent="7">
                    <mxGeometry x="10" y="200" width="60" height="30" as="geometry"/>
                </mxCell>
                <mxCell id="33" value="Width" style="text;html=1;strokeColor=none;fillColor=none;align=center;verticalAlign=middle;whiteSpace=wrap;rounded=0;shadow=0;sketch=0;strokeWidth=1;fontSize=18;" vertex="1" parent="7">
                    <mxGeometry x="10" y="240" width="60" height="30" as="geometry"/>
                </mxCell>
                <mxCell id="34" value="Height" style="text;html=1;strokeColor=none;fillColor=none;align=center;verticalAlign=middle;whiteSpace=wrap;rounded=0;shadow=0;sketch=0;strokeWidth=1;fontSize=18;" vertex="1" parent="7">
                    <mxGeometry x="10" y="280" width="60" height="30" as="geometry"/>
                </mxCell>
                <mxCell id="35" style="edgeStyle=orthogonalEdgeStyle;html=1;exitX=0.5;exitY=1;exitDx=0;exitDy=0;entryX=0.25;entryY=1;entryDx=0;entryDy=0;fontSize=18;" edge="1" parent="7" source="32" target="32">
                    <mxGeometry relative="1" as="geometry"/>
                </mxCell>
                <mxCell id="36" value="" style="rounded=0;whiteSpace=wrap;html=1;shadow=0;sketch=0;strokeWidth=1;fontSize=18;" vertex="1" parent="7">
                    <mxGeometry x="80" y="205" width="130" height="20" as="geometry"/>
                </mxCell>
                <mxCell id="47" value="" style="rounded=0;whiteSpace=wrap;html=1;shadow=0;sketch=0;strokeWidth=1;fontSize=18;" vertex="1" parent="7">
                    <mxGeometry x="80" y="250" width="130" height="20" as="geometry"/>
                </mxCell>
                <mxCell id="48" value="" style="rounded=0;whiteSpace=wrap;html=1;shadow=0;sketch=0;strokeWidth=1;fontSize=18;" vertex="1" parent="7">
                    <mxGeometry x="80" y="290" width="130" height="20" as="geometry"/>
                </mxCell>
                <mxCell id="49" value="mm" style="text;html=1;strokeColor=none;fillColor=none;align=center;verticalAlign=middle;whiteSpace=wrap;rounded=0;shadow=0;sketch=0;strokeWidth=1;fontSize=18;" vertex="1" parent="7">
                    <mxGeometry x="210" y="200" width="60" height="30" as="geometry"/>
                </mxCell>
                <mxCell id="62" value="mm" style="text;html=1;strokeColor=none;fillColor=none;align=center;verticalAlign=middle;whiteSpace=wrap;rounded=0;shadow=0;sketch=0;strokeWidth=1;fontSize=18;" vertex="1" parent="7">
                    <mxGeometry x="210" y="245" width="60" height="30" as="geometry"/>
                </mxCell>
                <mxCell id="63" value="mm" style="text;html=1;strokeColor=none;fillColor=none;align=center;verticalAlign=middle;whiteSpace=wrap;rounded=0;shadow=0;sketch=0;strokeWidth=1;fontSize=18;" vertex="1" parent="7">
                    <mxGeometry x="210" y="280" width="60" height="30" as="geometry"/>
                </mxCell>
                <mxCell id="64" value="Calculate" style="rounded=0;whiteSpace=wrap;html=1;shadow=0;sketch=0;strokeWidth=1;fontSize=18;" vertex="1" parent="7">
                    <mxGeometry x="10" y="340" width="120" height="30" as="geometry"/>
                </mxCell>
                <mxCell id="65" value="Volume is&amp;nbsp;" style="text;html=1;strokeColor=none;fillColor=none;align=center;verticalAlign=middle;whiteSpace=wrap;rounded=0;shadow=0;sketch=0;strokeWidth=1;fontSize=18;" vertex="1" parent="7">
                    <mxGeometry x="10" y="390" width="100" height="30" as="geometry"/>
                </mxCell>
                <mxCell id="66" value="" style="rounded=0;whiteSpace=wrap;html=1;shadow=0;sketch=0;strokeWidth=1;fontSize=18;" vertex="1" parent="7">
                    <mxGeometry x="110" y="400" width="65" height="20" as="geometry"/>
                </mxCell>
            </root>
        </mxGraphModel>
    </diagram>
</mxfile>